<svg width="220" height="64" viewBox="0 0 220 64" fill="none" xmlns="http://www.w3.org/2000/svg">
  <defs>
    <linearGradient id="grad" x1="0%" y1="0%" x2="100%" y2="100%">
      <stop offset="0%" stop-color="#7B4AE2" />
      <stop offset="100%" stop-color="#EF4D5B" />
    </linearGradient>
  </defs>
  <rect width="220" height="64" rx="16" fill="transparent" />
  <path d="M34 16c-10 0-18 8-18 18s8 18 18 18c6.5 0 12.3-3.3 15.5-8.4l-6.2-3.6c-1.9 3-5.1 4.9-9.3 4.9-6.1 0-11-4.9-11-10.9s4.9-10.9 11-10.9c4.2 0 7.4 1.9 9.3 4.9l6.2-3.6C46.3 19.3 40.5 16 34 16z" fill="url(#grad)" />
  <path d="M48 20c4.6 5.4 4.6 12.6 0 18" stroke="url(#grad)" stroke-width="3" stroke-linecap="round" />
  <text x="80" y="30" fill="#F6F6F9" font-family="'Inter', 'Helvetica Neue', Arial, sans-serif" font-size="20" font-weight="600">Current Market</text>
  <text x="80" y="48" fill="rgba(246,246,249,0.7)" font-family="'Inter', 'Helvetica Neue', Arial, sans-serif" font-size="12">The Brand Intelligence Lab</text>
</svg>
