<svg width="1200" height="630" viewBox="0 0 1200 630" fill="none" xmlns="http://www.w3.org/2000/svg">
  <defs>
    <linearGradient id="grad" x1="0" y1="0" x2="1" y2="1">
      <stop offset="0%" stop-color="#7B4AE2" />
      <stop offset="100%" stop-color="#EF4D5B" />
    </linearGradient>
  </defs>
  <rect width="1200" height="630" fill="#0B0A12" />
  <circle cx="320" cy="315" r="160" stroke="url(#grad)" stroke-width="32" fill="none" opacity="0.7" />
  <circle cx="320" cy="315" r="120" fill="url(#grad)" opacity="0.18" />
  <path d="M320 195c-66 0-120 54-120 120s54 120 120 120c43 0 80-22 101-56l-41-24c-12 20-34 32-60 32-38 0-70-32-70-72s32-72 70-72c26 0 48 12 60 32l41-24c-21-34-58-56-101-56z" fill="url(#grad)" />
  <text x="520" y="290" fill="#F6F6F9" font-family="'Inter', 'Helvetica Neue', Arial, sans-serif" font-size="72" font-weight="600">Current Market</text>
  <text x="520" y="358" fill="rgba(246,246,249,0.7)" font-family="'Inter', 'Helvetica Neue', Arial, sans-serif" font-size="36">The Brand Intelligence Lab</text>
  <text x="520" y="428" fill="#F6F6F9" font-family="'Inter', 'Helvetica Neue', Arial, sans-serif" font-size="24" opacity="0.8">Where creativity meets intelligence.</text>
</svg>
